<svg xmlns="http://www.w3.org/2000/svg" version="1.1" xmlns:xlink="http://www.w3.org/1999/xlink" xmlns:svgjs="http://svgjs.dev/svgjs" width="2000" height="1306" viewBox="0 0 2000 1306"><g transform="matrix(1,0,0,1,-0.44525671867313577,0.5287449392711778)"><svg viewBox="0 0 378 247" data-background-color="#444444" preserveAspectRatio="xMidYMid meet" height="1306" width="2000" xmlns="http://www.w3.org/2000/svg" xmlns:xlink="http://www.w3.org/1999/xlink"><g id="tight-bounds" transform="matrix(1,0,0,1,0.08415351982921493,-0.09999999999999432)"><svg viewBox="0 0 377.83169296034157 247.2" height="247.2" width="377.83169296034157"><g><svg viewBox="0 0 397.4975999999999 260.0666078330115" height="247.2" width="377.83169296034157"><g><rect width="397.4975999999999" height="7.965496711215873" x="0" y="142.9211750038227" fill="#ffffff" opacity="1" stroke-width="0" stroke="transparent" fill-opacity="1" class="rect-qz-0" data-fill-palette-color="secondary" rx="1%" id="qz-0" data-palette-color="#00d1cd"></rect></g><g transform="matrix(1,0,0,1,0.9887999999999693,171.73875734649374)"><svg viewBox="0 0 395.52 88.32785048651775" height="88.32785048651775" width="395.52"><g id="textblocktransform"><svg viewBox="0 0 395.52 88.32785048651775" height="88.32785048651775" width="395.52" id="textblock"><g><svg viewBox="0 0 395.52 88.32785048651775" height="88.32785048651775" width="395.52"><g transform="matrix(1,0,0,1,0,0)"><svg width="395.52" viewBox="3.095046348151999 -39.55 230.36454471352795 51.449999999999996" height="88.32785048651775" data-palette-color="#ffffff"><path d="M17 0.5L17 0.5Q13.8 0.5 11.08-0.43 8.35-1.35 6.35-3.05 4.35-4.75 3.3-7L3.3-7Q2.9-7.8 3.28-8.47 3.65-9.15 4.55-9.4L4.55-9.4Q5.25-9.6 5.93-9.25 6.6-8.9 6.95-8.2L6.95-8.2Q7.7-6.75 9.15-5.6 10.6-4.45 12.6-3.83 14.6-3.2 17-3.2L17-3.2Q19.65-3.2 21.7-4.08 23.75-4.95 24.93-6.63 26.1-8.3 26.1-10.7L26.1-10.7Q26.1-13.75 23.85-15.95 21.6-18.15 16.8-18.75L16.8-18.75Q10.95-19.45 7.65-22.38 4.35-25.3 4.35-29.55L4.35-29.55Q4.35-32.6 5.98-34.85 7.6-37.1 10.45-38.33 13.3-39.55 17-39.55L17-39.55Q19.75-39.55 22-38.68 24.25-37.8 25.93-36.38 27.6-34.95 28.65-33.25L28.65-33.25Q29.15-32.45 28.98-31.7 28.8-30.95 28.1-30.55L28.1-30.55Q27.35-30.2 26.58-30.45 25.8-30.7 25.4-31.4L25.4-31.4Q24.65-32.55 23.53-33.58 22.4-34.6 20.8-35.2 19.2-35.8 16.95-35.85L16.95-35.85Q13-35.85 10.6-34.18 8.2-32.5 8.2-29.3L8.2-29.3Q8.2-27.6 9.1-26.18 10-24.75 12.08-23.73 14.15-22.7 17.65-22.2L17.65-22.2Q23.9-21.3 26.93-18.38 29.95-15.45 29.95-10.75L29.95-10.75Q29.95-8.05 28.98-5.95 28-3.85 26.23-2.43 24.45-1 22.08-0.25 19.7 0.5 17 0.5ZM50.05 0.25L50.05 0.25Q46.05 0.25 42.9-1.55 39.75-3.35 37.95-6.5 36.15-9.65 36.15-13.65L36.15-13.65Q36.15-17.7 37.95-20.85 39.75-24 42.9-25.8 46.05-27.6 50.05-27.6L50.05-27.6Q54.05-27.6 57.17-25.8 60.3-24 62.1-20.85 63.9-17.7 63.95-13.65L63.95-13.65Q63.95-9.65 62.12-6.5 60.3-3.35 57.17-1.55 54.05 0.25 50.05 0.25ZM50.05-3.25L50.05-3.25Q52.95-3.25 55.25-4.6 57.55-5.95 58.85-8.3 60.15-10.65 60.15-13.65L60.15-13.65Q60.15-16.65 58.85-19.03 57.55-21.4 55.25-22.75 52.95-24.1 50.05-24.1L50.05-24.1Q47.15-24.1 44.85-22.75 42.55-21.4 41.22-19.03 39.9-16.65 39.9-13.65L39.9-13.65Q39.9-10.65 41.22-8.3 42.55-5.95 44.85-4.6 47.15-3.25 50.05-3.25ZM83.65 0.25L83.65 0.25Q79.7 0.25 76.62-1.58 73.55-3.4 71.77-6.55 70-9.7 70-13.65L70-13.65Q70-17.65 71.7-20.8 73.4-23.95 76.35-25.78 79.3-27.6 83.15-27.6L83.15-27.6Q86.2-27.6 88.77-26.4 91.35-25.2 93.3-22.8L93.3-22.8Q93.85-22.2 93.7-21.53 93.55-20.85 92.85-20.35L92.85-20.35Q92.3-19.95 91.62-20.08 90.95-20.2 90.45-20.8L90.45-20.8Q87.55-24.1 83.15-24.1L83.15-24.1Q80.35-24.1 78.22-22.75 76.1-21.4 74.92-19.05 73.75-16.7 73.75-13.65L73.75-13.65Q73.75-10.65 75-8.3 76.25-5.95 78.5-4.6 80.75-3.25 83.65-3.25L83.65-3.25Q85.6-3.25 87.22-3.78 88.85-4.3 90.1-5.4L90.1-5.4Q90.7-5.9 91.35-5.95 92-6 92.55-5.55L92.55-5.55Q93.15-5 93.22-4.3 93.3-3.6 92.75-3.1L92.75-3.1Q89.1 0.25 83.65 0.25ZM121.49-24.6L104.39-9.15 102.04-11.7 119.14-27.15Q119.74-27.7 120.39-27.68 121.04-27.65 121.59-27.05L121.59-27.05Q122.14-26.45 122.12-25.78 122.09-25.1 121.49-24.6L121.49-24.6ZM103.14 0L103.14 0Q102.29 0 101.77-0.53 101.24-1.05 101.24-1.9L101.24-1.9 101.24-37.15Q101.24-38 101.77-38.53 102.29-39.05 103.14-39.05L103.14-39.05Q103.99-39.05 104.52-38.53 105.04-38 105.04-37.15L105.04-37.15 105.04-1.9Q105.04-1.05 104.52-0.53 103.99 0 103.14 0ZM121.64-0.25L121.64-0.25Q120.99 0.3 120.29 0.23 119.59 0.15 119.09-0.5L119.09-0.5 107.94-14.2 110.64-16.6 121.89-2.75Q122.39-2.15 122.34-1.48 122.29-0.8 121.64-0.25ZM139.74 0.25L139.74 0.25Q135.69 0.25 132.56-1.53 129.44-3.3 127.67-6.45 125.89-9.6 125.89-13.65L125.89-13.65Q125.89-17.75 127.56-20.88 129.24-24 132.19-25.8 135.14-27.6 138.99-27.6L138.99-27.6Q142.79-27.6 145.62-25.88 148.44-24.15 149.99-21.1 151.54-18.05 151.54-14.15L151.54-14.15Q151.54-13.35 151.04-12.88 150.54-12.4 149.74-12.4L149.74-12.4 128.49-12.4 128.49-15.6 150.14-15.6 147.99-14.05Q148.04-16.95 146.94-19.25 145.84-21.55 143.81-22.85 141.79-24.15 138.99-24.15L138.99-24.15Q136.14-24.15 133.99-22.8 131.84-21.45 130.66-19.07 129.49-16.7 129.49-13.65L129.49-13.65Q129.49-10.6 130.81-8.25 132.14-5.9 134.44-4.55 136.74-3.2 139.74-3.2L139.74-3.2Q141.54-3.2 143.37-3.83 145.19-4.45 146.29-5.4L146.29-5.4Q146.84-5.85 147.54-5.88 148.24-5.9 148.74-5.5L148.74-5.5Q149.39-4.9 149.42-4.2 149.44-3.5 148.84-3L148.84-3Q147.19-1.6 144.64-0.68 142.09 0.25 139.74 0.25ZM169.79 0L168.74 0Q166.09 0 164.01-1.25 161.94-2.5 160.74-4.67 159.54-6.85 159.54-9.65L159.54-9.65 159.54-34.1Q159.54-34.95 160.06-35.5 160.59-36.05 161.44-36.05L161.44-36.05Q162.29-36.05 162.84-35.5 163.39-34.95 163.39-34.1L163.39-34.1 163.39-9.65Q163.39-7.1 164.89-5.48 166.39-3.85 168.74-3.85L168.74-3.85 170.09-3.85Q170.89-3.85 171.39-3.3 171.89-2.75 171.89-1.9L171.89-1.9Q171.89-1.05 171.29-0.53 170.69 0 169.79 0L169.79 0ZM169.04-23L156.29-23Q155.54-23 155.04-23.48 154.54-23.95 154.54-24.65L154.54-24.65Q154.54-25.4 155.04-25.88 155.54-26.35 156.29-26.35L156.29-26.35 169.04-26.35Q169.79-26.35 170.29-25.88 170.79-25.4 170.79-24.65L170.79-24.65Q170.79-23.95 170.29-23.48 169.79-23 169.04-23L169.04-23ZM180.89 0L180.89 0Q179.99 0 179.46-0.53 178.94-1.05 178.94-1.95L178.94-1.95 178.94-25.4Q178.94-26.3 179.46-26.83 179.99-27.35 180.89-27.35L180.89-27.35Q181.74-27.35 182.26-26.83 182.79-26.3 182.79-25.4L182.79-25.4 182.79-1.95Q182.79-1.05 182.26-0.53 181.74 0 180.89 0ZM180.84-32.55L180.84-32.55Q179.74-32.55 178.94-33.35 178.14-34.15 178.14-35.3L178.14-35.3Q178.14-36.55 178.96-37.27 179.79-38 180.89-38L180.89-38Q181.94-38 182.76-37.27 183.59-36.55 183.59-35.3L183.59-35.3Q183.59-34.15 182.79-33.35 181.99-32.55 180.84-32.55ZM195.98 0L195.98 0Q195.23 0 194.68-0.53 194.13-1.05 194.13-1.95L194.13-1.95 194.13-27.3Q194.13-30.8 195.33-33.45 196.53-36.1 198.88-37.58 201.23-39.05 204.63-39.05L204.63-39.05Q205.48-39.05 206.03-38.55 206.58-38.05 206.58-37.3L206.58-37.3Q206.58-36.55 206.03-36.05 205.48-35.55 204.63-35.55L204.63-35.55Q202.38-35.55 200.91-34.52 199.43-33.5 198.71-31.68 197.98-29.85 197.98-27.5L197.98-27.5 197.98-1.95Q197.98-1.05 197.46-0.53 196.93 0 195.98 0ZM203.98-23L190.93-23Q190.13-23 189.66-23.48 189.18-23.95 189.18-24.65L189.18-24.65Q189.18-25.4 189.66-25.88 190.13-26.35 190.93-26.35L190.93-26.35 203.98-26.35Q204.78-26.35 205.26-25.88 205.73-25.4 205.73-24.65L205.73-24.65Q205.73-23.95 205.26-23.48 204.78-23 203.98-23L203.98-23ZM215.58 11.9L215.58 11.9Q215.18 11.9 214.68 11.7L214.68 11.7Q212.98 10.95 213.73 9.3L213.73 9.3 229.88-26.3Q230.63-27.9 232.28-27.2L232.28-27.2Q233.98-26.5 233.23-24.85L233.23-24.85 217.03 10.75Q216.53 11.9 215.58 11.9ZM221.13-0.85L221.13-0.85Q220.38-0.5 219.73-0.73 219.08-0.95 218.68-1.7L218.68-1.7 207.53-24.8Q207.18-25.55 207.43-26.2 207.68-26.85 208.43-27.2L208.43-27.2Q209.18-27.55 209.83-27.33 210.48-27.1 210.83-26.35L210.83-26.35 221.78-3.25Q222.18-2.5 222.03-1.85 221.88-1.2 221.13-0.85Z" opacity="1" transform="matrix(1,0,0,1,0,0)" fill="#ffffff" class="wordmark-text-0" data-fill-palette-color="primary" id="text-0"></path></svg></g></svg></g></svg></g></svg></g><g transform="matrix(1,0,0,1,117.50734637657943,0)"><svg viewBox="0 0 162.48290724684105 122.06908937236754" height="122.06908937236754" width="162.48290724684105"><g><svg xmlns="http://www.w3.org/2000/svg" xmlns:xlink="http://www.w3.org/1999/xlink" version="1.1" x="8" y="0" viewBox="1.8 6 97.2 81" enable-background="new 0 0 100 100" xml:space="preserve" height="122.06908937236754" width="146.48290724684105" class="icon-icon-0" data-fill-palette-color="accent" id="icon-0"><g fill="#00d1cd" data-fill-palette-color="accent"><polygon points="9.9,87 99,87 99,14.1 50.4,14.1 50.4,22.2 90.9,22.2 90.9,78.899 18,78.899 18,54.601 9.9,54.601  " fill="#ffffff" data-fill-palette-color="accent"></polygon><polygon points="34.2,14.1 26.1,14.1 26.1,6 18,6 9.9,6 9.9,22.2 9.9,30.3 1.8,30.3 1.8,46.5 18,46.5 18,38.4 18,30.3 18,22.2    26.1,22.2 34.2,22.2 34.2,38.4 26.1,38.4 26.1,54.601 34.2,54.601 42.3,54.601 42.3,38.4 42.3,22.2 42.3,14.1  " fill="#ffffff" data-fill-palette-color="accent"></polygon></g></svg></g></svg></g><g><rect width="35.50853950132502" height="7.965496711215873" y="113.10359266115167" x="279.9902536234205" fill="#ffffff" data-fill-palette-color="secondary"></rect><rect width="35.50853950132502" height="7.965496711215873" y="113.10359266115167" x="81.99880687525442" fill="#ffffff" data-fill-palette-color="secondary"></rect></g></svg></g><defs></defs></svg><rect width="377.83169296034157" height="247.2" fill="none" stroke="none" visibility="hidden"></rect></g></svg></g></svg>