<svg xmlns="http://www.w3.org/2000/svg" version="1.1" xmlns:xlink="http://www.w3.org/1999/xlink" xmlns:svgjs="http://svgjs.dev/svgjs" width="128" height="128" viewBox="0 0 128 128"><g transform="matrix(0.8046875,0,0,0.8046875,12.760752631578946,20.716475463867184)"><svg viewBox="0 0 95 80" data-background-color="#444444" preserveAspectRatio="xMidYMid meet" height="107" width="128" xmlns="http://www.w3.org/2000/svg" xmlns:xlink="http://www.w3.org/1999/xlink"><g id="tight-bounds" transform="matrix(1,0,0,1,-0.24049999999999727,0.21625000000000227)"><svg viewBox="0 0 95.481 79.5675" height="79.5675" width="95.481"><g><svg viewBox="0 0 95.481 79.5675" height="79.5675" width="95.481"><g><svg viewBox="0 0 95.481 79.5675" height="79.5675" width="95.481"><g id="textblocktransform"><svg viewBox="0 0 95.481 79.5675" height="79.5675" width="95.481" id="textblock"><g><svg viewBox="0 0 95.481 79.5675" height="79.5675" width="95.481"><g><svg viewBox="0 0 95.481 79.5675" height="79.5675" width="95.481"><g><svg xmlns="http://www.w3.org/2000/svg" xmlns:xlink="http://www.w3.org/1999/xlink" version="1.1" x="0" y="0" viewBox="1.8 6 97.2 81" enable-background="new 0 0 100 100" xml:space="preserve" height="79.5675" width="95.481" class="icon-icon-0" data-fill-palette-color="accent" id="icon-0"><g fill="#00d1cd" data-fill-palette-color="accent"><polygon points="9.9,87 99,87 99,14.1 50.4,14.1 50.4,22.2 90.9,22.2 90.9,78.899 18,78.899 18,54.601 9.9,54.601  " fill="#ffffff" data-fill-palette-color="accent"></polygon><polygon points="34.2,14.1 26.1,14.1 26.1,6 18,6 9.9,6 9.9,22.2 9.9,30.3 1.8,30.3 1.8,46.5 18,46.5 18,38.4 18,30.3 18,22.2    26.1,22.2 34.2,22.2 34.2,38.4 26.1,38.4 26.1,54.601 34.2,54.601 42.3,54.601 42.3,38.4 42.3,22.2 42.3,14.1  " fill="#ffffff" data-fill-palette-color="accent"></polygon></g></svg></g></svg></g></svg></g></svg></g></svg></g><g></g></svg></g><defs></defs></svg><rect width="95.481" height="79.5675" fill="none" stroke="none" visibility="hidden"></rect></g></svg></g></svg>